<!-- Created by «Apktool M» — https://maximoff.su/apktool -->
<svg
	xmlns="http://www.w3.org/2000/svg"
	xmlns:xlink="http://www.w3.org/1999/xlink"
	width="100%"
	height="100%"
	version="1.1"
	viewBox="0 0 36.0 36.0">
	<path
		fill="#21A038"
		fill-opacity="1.0"
		d="m18.0009,8.7714h-0.0013c-2.3786,0 -4.5496,0.9043 -6.1881,2.388 -1.8658,1.6896 -3.0383,4.13 -3.0392,6.8401 0,2.3792 0.9055,4.5506 2.3883,6.1893l0.0011,-0.001c1.6895,1.8658 4.1301,3.0399 6.8393,3.0399 2.3788,-0.0002 4.5501,-0.9058 6.1887,-2.3887l-0.001,-0.001c1.8658,-1.6896 3.0399,-4.1302 3.0399,-6.8394 0,-0.082 -0.0018,-0.164 -0.0037,-0.246l2.5829,-1.9035c0.1262,0.6983 0.1922,1.4163 0.1922,2.1504 0,3.3138 -1.3436,6.3144 -3.5149,8.4852 -2.1721,2.172 -5.1719,3.5153 -8.485,3.5153h-0.0294c-3.3016,-0.0082 -6.2904,-1.35 -8.4552,-3.5154 -2.172,-2.1721 -3.5155,-5.1719 -3.5155,-8.4851 0,-3.3131 1.3428,-6.3132 3.5142,-8.4846 2.172,-2.172 5.1723,-3.5149 8.4854,-3.5149h0.0013c2.8552,0 5.4767,0.997 7.5366,2.6621l-2.3341,1.7197c-1.3638,-0.9338 -2.9893,-1.5126 -4.7429,-1.5984 -0.0819,-0.004 -0.1641,-0.0064 -0.2465,-0.0088 -0.0708,-0.0016 -0.1419,-0.0033 -0.2131,-0.0033z" />
	<path
		fill="#21A038"
		fill-opacity="1.0"
		d="m28.9343,13.0476c-0.3872,-0.8528 -0.8716,-1.6528 -1.438,-2.385l-9.4956,6.9986 -4.5683,-2.8637v3.4451l4.5683,2.8637z" />
</svg>