<!-- Created by «Apktool M» — https://maximoff.su/apktool -->
<svg
	xmlns="http://www.w3.org/2000/svg"
	xmlns:xlink="http://www.w3.org/1999/xlink"
	width="150%"
	height="150%"
	version="1.1"
	viewBox="0 0 140.0 140.0">
	<path
		fill="rgb(255,255,255)"
		fill-opacity="1.0"
		d="M121.7,66.9l1.4-4.4h-4.6c-2.1-0.1-4.2-0.8-5.9-2h0.6c2.8,0,5.4-1.6,6.6-4.1l2-4.4c-1.6,0-3.1-0.1-4.7-0.3 c-1.5-0.4-2.8-1.2-3.8-2.3c-1.4-1.5-3.3-2.3-5.3-2.3c-0.8,0-1.6,0.1-2.3,0.4c0.1-0.4,0.2-0.7,0.3-1.1c0.3-2.6-0.4-5.2-2-7.2 l-3.4-4.2l-2.1,5c-0.3,0.7-0.8,1.3-1.5,1.8c-0.4-1.8-1.2-3.4-2.5-4.7c-2.2-2.2-5.1-3.4-8.2-3.4h-1.7l-4.1,0.8c0.4-1.4,0.9-2.8,1.7-4 l2.3-3.6l-5.7,0.7l-2-3.6l-3.5,1.8L70,22.6l-3.3,3.2L63.2,24l-1.8,3.9l-5.7-0.7l2.3,3.6c0.8,1.2,1.3,2.6,1.7,4L55.6,34h-1.8 c-3.1,0-6,1.2-8.2,3.4c-1.3,1.3-2.1,2.9-2.5,4.7c-0.6-0.4-1.2-1-1.5-1.7l-2.1-5L36,39.5c-1.6,2-2.3,4.6-2,7.1 c0.1,0.4,0.2,0.7,0.3,1.1c-0.7-0.3-1.5-0.4-2.3-0.4c-2,0-3.9,0.8-5.3,2.3c-1,1.1-2.3,1.9-3.7,2.3c-1.6,0.2-3.1,0.3-4.7,0.3l2,4.4 c1.2,2.5,3.8,4.1,6.6,4.1h0.6c-1.7,1.3-3.7,2-5.8,2.1h-4.8l1.4,4.4c0.7,2.3,3.1,6,7.6,6.4c-0.5,2.1-1.6,4.4-4,5.4l-3.5,1.4l1.9,3.3 c1.6,2.4,4.2,3.8,7.1,3.8l2.2-0.2c0.2,0.8,0.4,1.6,0.7,2.4c0.7,1.7,0.7,3.6,0.1,5.4l-1.7,3.6l3.8,1c0.9,0.2,1.7,0.3,2.6,0.3l1.9-0.2 l1.3-0.4c0.5,0.9,1.1,1.7,1.8,2.4c2.4,2.5,5.9,3.8,10.3,3.8h3.1l-6.3,2.4l4.9,2.4c2,1,4,1.9,6.1,2.7l-0.6,1.7l1.7,0.8 c2.8,1.1,5.8,1.7,8.8,1.8h4c3-0.1,6-0.7,8.8-1.8l1.7-0.8l-0.6-1.7c2.1-0.8,4.1-1.7,6.1-2.7l4.8-2.3l-6.4-2.7h3.1 c4.4,0,7.9-1.3,10.3-3.8c0.7-0.7,1.3-1.5,1.8-2.4l1.3,0.4l1.9,0.2c0.9,0,1.7-0.1,2.6-0.3l3.8-1l-1.7-3.5c-0.6-1.8-0.6-3.7,0.1-5.4 c0.3-0.8,0.5-1.6,0.7-2.4l2.2,0.2c2.9,0,5.6-1.5,7.1-3.9l1.9-3.2l-3.5-1.4c-2.4-1-3.5-3.3-4-5.4c4.5-0.4,6.9-4.2,7.6-6.4 M59.9,36.3 L59.9,36.3z" />
	<path
		fill="rgb(255,221,0)"
		fill-opacity="1.0"
		d="M85.8,80.8H54.3v11.9c0,4.8,3.5,7.9,8.7,7.9s5.5,0.2,7.1,1.8c1-1.1,2.4-1.7,3.9-1.7v-0.2l1-3.1l-1.7-1.9 c-0.7,0.2-1.4,0.3-2.1,0.2l-3.1-0.3h-0.5l-0.2,0.3L67,96.3l-0.7-0.2l-3-0.7l-0.4,0.7H63l0.4,0.4L63.2,97c-0.3,0.7-0.7,1.4-1.2,1.9 l-0.8,0.8l-0.7-0.9L60,98.2c-0.6-0.7-0.7-1.7-0.4-2.5l0,0l-0.9,0.4l-0.4-0.8L58,94.7c-0.5-1.3-0.1-2.7,1-3.5l2.4-1.4l2.3,0.5 c0.1-0.2,0.1-1,0.2-1.2h-0.1l-1.3,0.5l-1.3-0.9c-0.3-0.3-0.3-0.7,0-1c0,0,0,0,0,0l1.2-1.9l-3.2-4l4.9,2l0.3-0.4l0.7-0.8l0.7,0.7 c0.2,0.2,0.3,0.4,0.4,0.7c1.3,0.5,3.7,2.1,3.9,4.6l-0.8,0.3l0,0l0.4,0.3l3.5,0.3h0.3c0.6-0.2,1.2-0.4,1.8-0.4c0.6,0,1.2,0.1,1.8,0.4 l0.8-0.2h0.2c1.9,0,2.8,1.4,3.5,2.5l0.4,0.6l1.5,2.3l0.4,0.6l-0.5,0.5c-0.4,0.6-1.1,0.9-1.8,0.9H81l-0.6-0.2v0.6l-0.6,3.2 c3.6-0.7,6.1-4,5.9-7.6L85.8,80.8z" />
	<path
		fill="rgb(255,221,0)"
		fill-opacity="1.0"
		d="M54.3,79.9h24.5c-1-1-1.3-2.5-0.9-3.9L77,75.4l-4.6,3.4h-0.2l-9.6-1.7h-1.2c-0.1,0.4-0.5,0.7-0.9,0.7h-0.2 c-0.5-0.1-0.9-0.6-0.8-1.1v-0.2c-1.2-0.9-1.8-2.4-1.5-3.9v-0.2h0.1l0.4-0.3H58c-0.2,0-0.4-0.3-0.4-0.5c0-0.2,0.3-0.4,0.5-0.4 l1.7,0.3l0.2-5.9l2.5-2.6l1.5,3l-1.6,5.6l1.5,0.2c0.2,0,0.4,0.3,0.4,0.5c0,0.2-0.3,0.4-0.5,0.4h-0.1l-1.2-0.2h0.1 c0.1,0.2,0.4,0.4,0.6,0.5h7.3l1.9-1.9c-1.4-0.5-2.4-1.8-2.6-3.3c-0.9-0.3-1.7-1-2.1-1.9c-0.4-0.8-0.4-1.7-0.2-2.6 c-1.2-0.4-2.2-1.1-3.1-2h-11c0.5,1.3,0.8,2.6,0.9,4L54.3,79.9z" />
	<path
		fill="rgb(30,14,0)"
		fill-opacity="1.0"
		d="M64.4,86c-0.2,0-0.3,0.1-0.3,0.3v0c0,0.2,0.1,0.3,0.3,0.3h0c0.2,0,0.3-0.1,0.3-0.3C64.7,86.1,64.6,86,64.4,86 C64.4,86,64.4,86,64.4,86" />
	<path
		fill="rgb(30,14,0)"
		fill-opacity="1.0"
		d="M85.7,107.5l-1.8-0.7l0.5-1.9l0.6-2c-2.5,1.3-5,2.3-7.7,3.1l-2.3,0.5v1.4c-1.6,0.3-3.3,0.4-4.9,0.4H70 c-1.6,0-3.3-0.1-4.9-0.4v-1.4l-2.3-0.5c-2.7-0.8-5.2-1.8-7.7-3.1l0.5,2l0.5,1.9l-1.8,0.7l-2,0.8c2.7,1.4,5.6,2.6,8.5,3.5l-0.7,1.9 c3.2,1.2,6.5,1.8,9.9,1.7h0.1c3.4,0.1,6.7-0.5,9.9-1.7l-0.7-1.9c2.9-0.9,5.8-2.1,8.5-3.5L85.7,107.5z M54.4,108.4l3-1l-0.9-2.9 c1.9,1,3.9,1.8,6,2.4l-1.4,4C58.8,110.3,56.6,109.4,54.4,108.4 M70.1,114.4c-2.9,0-5.8-0.4-8.6-1.2l1.8-4.8c2.2,0.6,4.4,0.9,6.7,0.9 h0.1c2.3,0,4.5-0.3,6.7-0.9l1.8,4.8C75.8,114,72.9,114.4,70.1,114.4 M78.9,110.8l-1.4-4c2.1-0.6,4.1-1.4,6-2.4l-0.9,2.9l3,1 C83.5,109.3,81.3,110.2,78.9,110.8" />
	<path
		fill="rgb(30,14,0)"
		fill-opacity="1.0"
		d="M70,32.6c3-0.1,5.9,0.8,8.3,2.5c0.4-1.9,1.1-3.8,2.1-5.5l-3,0.3l-1.6-3.3l-3,1.5L70,25.4l-2.9,2.9l-3-1.5 L62.6,30l-3-0.3c1,1.7,1.7,3.6,2.1,5.5C64.1,33.4,67,32.5,70,32.6 M62.4,31.1h0.8l0.4-0.8l1-2.2l1.9,1l0.7,0.4l0.6-0.6L70,27 l2.1,2.1l0.6,0.6l0.7-0.4l1.9-1l1.1,2.2l0.3,0.8h1.6c-0.3,0.7-0.6,1.5-0.8,2.2c-4.7-2.4-10.4-2.4-15.1,0c-0.2-0.7-0.5-1.5-0.8-2.2 L62.4,31.1z" />
	<path
		fill="rgb(30,14,0)"
		fill-opacity="1.0"
		d="M113.3,71.4c4.8,0,6.4-4.9,6.4-5.1l0.5-1.7h-1.8c-3.8-0.1-7.3-1.9-9.6-4.9l-0.4-0.4c-2.4-3.1-4.8-6.1-8.9-7.4 l0.5-0.4c2-1.1,3.3-3,3.8-5.2c0.2-2-0.4-4-1.6-5.6l-1.1-1.7l-0.8,2c-0.1,0.1-1.5,3.2-4.4,3.2H95c0.2-2.1-0.6-4.1-2.1-5.6 c-1.8-1.8-4.2-2.8-6.7-2.8h-1.4l-2,0.4L84,38c1,1.3,1.9,3.6,0.8,4.8c-0.5,0.4-1.1,0.8-1.7,1c-1.4,0.6-3.2,1.5-3.2,3.7 s1.1,2.9,3.1,4.2c5.9,3.7,9.6,7.6,11.2,12c2.5,6.6-0.7,10.4-3.9,12.4L88.9,77l1.3,1c1.1,0.9,2.5,1.5,3.9,1.6h1.2 c1.2,0,2.4-0.2,3.6-0.5c-0.3,0.5-0.6,1-1,1.4c-1.8,2-4.4,3.1-7.1,3h-1.2v1.2c0,1.7,0.7,3.2,2,4.3l1.1,0.7c-1.4,1.3-2.8,3.4-3.1,7.2 c0,1.5-0.3,3-1,4.3l-1.3,2h2.3c3.9,0,6.8-1.1,8.8-3.2c1.1-1.1,1.8-2.4,2.3-3.9c0.8,0.6,1.7,1.1,2.7,1.3l1.4,0.2 c0.7,0,1.4-0.1,2.1-0.3l1.5-0.4l-0.7-1.4c-0.8-2.2-0.8-4.7,0-6.9c0.5-1.5,0.8-3,1-4.5c1.2,0.6,2.5,0.9,3.8,0.9 c2.2,0,4.2-1.1,5.4-2.9l0.7-1.3l-1.3-0.6c-4.4-1.8-5.4-6.7-5.6-9.4l1.4,0.2L113.3,71.4z M116.8,81.8c-0.9,1.4-2.5,2.2-4.2,2.2l0,0 c-1.9,0.1-3.8-0.7-5-2.2c0,2.2-0.3,4.5-1.1,6.6c-0.9,2.5-0.9,5.3,0,7.8c-0.6,0.1-1.2,0.2-1.8,0.2h-1.1c-1.7-0.4-3.1-1.7-3.7-3.4 c0,0,0.3,9.1-10.3,9.1h-0.1c0,0,0.9-1.3,1.2-4.9c0.5-6.8,5.1-7.7,5.1-7.7c-1.3-0.2-2.5-0.6-3.5-1.3c-0.9-0.8-1.5-2-1.5-3.2 c3.1,0.1,6-1.2,8-3.5c1.2-1.4,2-3,2.3-4.8c-1.7,1.3-3.8,1.9-5.9,1.8h-1c-1.1-0.1-2.2-0.6-3.1-1.3c4-2.6,6.9-7.1,4.4-13.9 s-6.9-9.5-11.7-12.6c-1.6-1-2.5-2.1-2.5-3.1s3.2-2.4,4.6-3.9s0.6-4.7-0.8-6.4h1.2c2.1,0,4.2,0.7,5.7,2.2c1.6,1.5,2.2,3.7,1.6,5.7 h2.3c3.8,0,5.6-4,5.6-4s4.1,5-1.9,9c-1,0.7-1.5,1.3-1.4,2v0.4h0.4c4.4,1.2,6.6,4.2,9.3,7.6c2.6,3.3,6.4,5.3,10.6,5.4h0.1 c0,0-1.3,4.2-5.2,4.2h-0.2c-0.9,0-1.9-0.2-2.7-0.7c0,0-0.7,9.5,6.4,12.4" />
	<path
		fill="rgb(30,14,0)"
		fill-opacity="1.0"
		d="M105,52.4c1.5,0.8,2.7,2,3.7,3.3c0.8,1.2,1.8,2.1,3.1,2.6l1.5,0.2c2,0,3.9-1.1,4.8-2.9l0.8-1.7h-1.8 c-0.1,0-2.5-0.2-5.1-2.9c-1-1.1-2.4-1.7-3.8-1.7c-1.1,0-2.3,0.4-3.2,1l-1.7,1.2L105,52.4z M108,50.5c1.1,0,2.2,0.5,2.9,1.3 c3.1,3.1,5.9,3.3,5.9,3.3c-0.7,1.3-2.1,2.2-3.6,2.2l-1.1-0.2c-2.1-0.7-2.9-3.9-6.6-5.9C106.2,50.7,107.1,50.5,108,50.5" />
	<path
		fill="rgb(30,14,0)"
		fill-opacity="1.0"
		d="M105.8,69.3L105.8,69.3c-1.1-8.7-7.4-14.9-14.3-18.7l-1.8-0.9c2.1,0.3,5.6,0.4,8.2-1.9c0,0-4,3-12.3,0.3 c2.3,1.5,6.8,3.6,10.8,7c10.2,8.9,2.9,17.7,2.9,17.7c3-2.9,4.1-7.3,2.7-11.2c2.2,3.6,3.2,7.7,3,11.9c-0.3,6.9-4.1,12.8-8,17.6 c-1.2,1.5-2,3.3-2.3,5.2c0.7-1.9,1.7-3.6,3-5.1c4.3-5,7.9-10.2,8.4-17.6c0.4,1.4,2.3,5.1,5.1,6.5c0,0-3.6-2.2-5.2-10.7" />
	<path
		fill="rgb(30,14,0)"
		fill-opacity="1.0"
		d="M51.5,101.3c-0.6-1.3-1-2.8-1-4.3c-0.3-3.7-1.7-5.9-3.1-7.2l1.1-0.7c1.3-1.1,2-2.6,2-4.3v-1.1h-1.2 c-2.7,0.1-5.3-1-7.1-3l-1-1.4c1.2,0.3,2.4,0.5,3.6,0.5H46c1.4-0.2,2.7-0.8,3.8-1.8l1.2-1.1L49.6,76c-3.1-2-6.3-5.8-3.9-12.4 c1.6-4.3,5.2-8.2,11.2-12c2-1.3,3.1-2.8,3.1-4.2s-1.8-3.1-3.2-3.7c-0.6-0.2-1.2-0.6-1.7-1c-1-1.2-0.2-3.5,0.8-4.8l1.2-1.6l-2-0.4 h-1.3c-2.5,0-4.9,1-6.7,2.8c-1.5,1.4-2.2,3.4-2.1,5.5h-0.8c-2.9,0-4.3-3.1-4.4-3.2L39,39l-1.3,1.6c-1.2,1.6-1.8,3.6-1.6,5.6 c0.5,2.2,1.8,4.1,3.8,5.2l0.5,0.4c-4.1,1.3-6.5,4.3-8.9,7.4l-0.4,0.4c-2.3,3-5.8,4.8-9.6,4.9h-1.8l0.5,1.7c0.1,0.2,1.7,5.1,6.4,5.1 h0.2l1.4-0.2c-0.2,2.7-1.2,7.5-5.6,9.4l-1.3,0.6l0.7,1.3c1.2,1.8,3.2,2.9,5.4,2.9c1.3,0,2.6-0.3,3.8-0.9c0.2,1.5,0.5,3,1,4.5 c0.8,2.2,0.8,4.7,0,6.9l-0.7,1.4l1.5,0.4c0.7,0.2,1.4,0.3,2.1,0.3l1.4-0.2c1-0.2,1.9-0.7,2.7-1.3c0.5,1.5,1.2,2.8,2.3,3.9 c2.1,2.1,5,3.2,8.8,3.2h2.3L51.5,101.3z M50.4,102c-10.6,0-10.3-9.1-10.3-9.1c-0.6,1.7-2,3-3.7,3.4h-1.1c-0.6,0-1.2-0.1-1.8-0.2 c0.9-2.5,0.9-5.3,0-7.8c-0.8-2.1-1.1-4.4-1.1-6.6c-1.2,1.5-3.1,2.3-5,2.2l0,0c-1.7,0-3.3-0.8-4.2-2.2c7.1-2.9,6.4-12.4,6.4-12.4 c-0.8,0.5-1.8,0.7-2.7,0.7h-0.2c-3.9,0-5.2-4.2-5.2-4.2h0.1c4.2-0.1,8-2.1,10.6-5.4c2.7-3.4,4.9-6.4,9.3-7.6h0.4v-0.4 c0.1-0.7-0.3-1.3-1.4-2c-6-3.9-1.9-9-1.9-9s1.7,4,5.6,4h2.3c-0.7-2.1-0.1-4.4,1.5-5.9c1.5-1.6,3.6-2.4,5.8-2.4H55 c-1.3,1.7-2.3,4.6-0.8,6.4s4.6,1.6,4.6,3.9s-0.9,2.1-2.5,3.1c-4.9,3.1-9.7,7.1-11.7,12.6S44.9,74.4,49,77c-0.9,0.7-2,1.2-3.1,1.3 h-1.2c-2.1,0.1-4.2-0.5-5.9-1.8c0.3,1.8,1.1,3.4,2.3,4.8c2,2.3,4.9,3.6,8,3.5c0,1.2-0.6,2.4-1.5,3.2c-1,0.7-2.2,1.1-3.5,1.3 c0,0,4.6,0.9,5.1,7.7C49.5,100.7,50.4,101.9,50.4,102L50.4,102z" />
	<path
		fill="rgb(30,14,0)"
		fill-opacity="1.0"
		d="M26.8,58.6l1.5-0.2c1.3-0.5,2.3-1.4,3.1-2.6c1-1.3,2.2-2.5,3.7-3.3l1.8-1l-1.7-1.2c-0.9-0.6-2.1-1-3.2-1 c-1.4,0-2.8,0.6-3.8,1.7c-2.6,2.7-5,2.9-5.1,2.9h-1.8l0.8,1.7C23,57.4,24.9,58.5,26.8,58.6 M29.2,51.8c0.7-0.8,1.8-1.3,2.9-1.3 c0.8,0,1.7,0.2,2.4,0.7c-3.7,2-4.5,5.2-6.6,5.9l-1.1,0.2c-1.5,0-2.9-0.9-3.6-2.2C23.2,55.1,26.1,54.9,29.2,51.8" />
	<path
		fill="rgb(30,14,0)"
		fill-opacity="1.0"
		d="M35.1,73.4c-0.2-4.2,0.8-8.3,3-11.9c-1.4,3.9-0.3,8.3,2.7,11.2c0,0-7.3-8.7,2.9-17.7c4.1-3.4,8.5-5.5,10.8-7 c-8.3,2.7-12.3-0.3-12.3-0.3c2.6,2.3,6.1,2.3,8.2,1.9l-1.8,0.9c-7,3.8-13.3,10-14.3,18.7l0,0C32.6,77.8,29,80,29,80 c2.9-1.4,4.7-5.2,5.1-6.5c0.5,7.5,4.1,12.6,8.4,17.6c1.3,1.5,2.3,3.2,3,5.1c-0.4-1.9-1.2-3.7-2.4-5.2C39.1,86.2,35.4,80.3,35.1,73.4" />
	<path
		fill="rgb(30,14,0)"
		fill-opacity="1.0"
		d="M67.6,55.9v1.7c0.4-0.4,1.1-0.7,1.7-0.6v2.5c0,0.6-0.2,1.2-0.5,1.7h2.5c-0.3-0.5-0.5-1.1-0.5-1.7v-2.4 c0.6-0.1,1.3,0.2,1.7,0.6v-1.8h-5H67.6z" />
	<path
		fill="rgb(30,14,0)"
		fill-opacity="1.0"
		d="M66.6,45.8c0.4,0.3,0.8,0.6,1.3,0.7h0.3V45l-2.9-1.2C65.4,44.6,65.9,45.4,66.6,45.8" />
	<path
		fill="rgb(30,14,0)"
		fill-opacity="1.0"
		d="M73.5,45.8c0.7-0.4,1.2-1.2,1.3-2L71.9,45v1.6h0.3C72.7,46.5,73.1,46.2,73.5,45.8" />
	<path
		fill="rgb(30,14,0)"
		fill-opacity="1.0"
		d="M78.7,39.2c0-2.5-4.1-4.7-8.7-4.7l0,0c-4.6,0-8.7,2.2-8.7,4.7v0.6l1.8,10.4l-1.8,1.1L56.7,54l0,0l-1.6,0.9 C53.3,56.2,53,58,54,58.7c0.3-1.8,1.8-3,3.6-3c1.5,0,2.9,0.8,3.8,2l0.7,1l0.8,1.2H50.8c1,1.8,1.6,3.8,1.7,5.8v27 c0,6.5,5,9.6,10.4,9.6s4.8-0.2,7.1,2.1c2.3-2.3,2.9-2.1,7.1-2.1s10.4-3.1,10.4-9.6v-27c0.2-2,0.8-4,1.8-5.7H77.1l0.8-1.2l0.7-1 c0.9-1.2,2.3-2,3.8-2c1.8,0,3.3,1.2,3.6,3c1-0.8,0.7-2.6-1.1-3.8l-1.6-1l0,0l-4.7-2.8l-1.8-1.1l1.8-10.4L78.7,39.2z M63.1,40.4 l6.4,2.2v10l-4.7-2.5L63.1,40.4z M64.4,61.7c0.9,0.9,1.9,1.6,3.1,2c-0.2,0.9-0.2,1.8,0.2,2.6c0.4,0.9,1.2,1.6,2.1,1.9 c0.2,1.5,1.2,2.8,2.6,3.3l-1.9,1.9h-7.4c-0.2-0.1-0.5-0.3-0.6-0.5h-0.1l1.2,0.2h0.1c0.2,0,0.5-0.2,0.5-0.4c0-0.2-0.2-0.5-0.4-0.5 L62.3,72l1.7-6l-1.5-3.3L60,65.4l-0.2,5.9L58.2,71c-0.2,0-0.5,0.2-0.5,0.4c0,0.2,0.2,0.5,0.4,0.5h0.7l-0.4,0.3h-0.1v0.2 c-0.3,1.5,0.3,3,1.5,3.9v0.2c-0.1,0.5,0.3,1,0.8,1.1h0.2c0.4,0,0.8-0.3,0.9-0.7h1.1l9.6,1.7h0.2l4.4-3.2l0.9,0.6 c-0.4,1.4-0.1,2.9,0.9,3.9H54.3V65.7c-0.1-1.4-0.4-2.7-0.9-4L64.4,61.7z M76.3,74.7l-4.4,3.2l-8.7-1.6V76c0.1-0.6,0.2-1.2,0.2-1.8 H71l3.6-3.7c0.3,0.4,0.7,0.7,1.1,1C75.5,72.6,75.7,73.7,76.3,74.7 M61.7,73.1c0.2,0.4,0.5,0.7,0.8,0.9c0,0.5-0.1,1.1-0.2,1.6v0.5 c-0.6,0-1.2-0.1-1.8-0.3c-1-0.6-1.6-1.7-1.5-2.8c0.5-0.3,1-0.5,1.6-0.6C61.1,72.4,61.5,72.7,61.7,73.1 M60.8,71.4v-5.6l1.3-1.3 l0.8,1.7l-1.6,5.4L60.8,71.4z M76.3,100.6h-1.4l1-3.2c0.2-0.4-0.7-1-1-1.5l2.5,1.3L76.3,100.6 M79.5,96.9l-0.7,3.5h-1.3l0.7-3.4 c0.2-1-2.5-1.3-3.8-3.3c-0.9,0.7-2,1.1-3.1,1c-1,0-2-0.1-3-0.3h-0.5c-0.4,0-0.8,0.2-1,0.5l-0.2,0.3l-3.7-0.9l-1,1.7 c-0.2,0.2-0.1,0.5,0.1,0.7l0.2,0.3c-0.2,0.5-0.5,1-0.9,1.4l-0.6-0.7c-0.4-0.7-0.4-1.6,0.1-2.2l1.5-2.5l3.1,0.5l-0.5-1.1 c-0.7-1.5,0.3-3.3,0.4-4.4s-0.3,0.4-0.7,0.4h-1l-0.9,0.5L62,88.3c-0.1-0.2-0.1-0.4,0.1-0.6l1.6-1.7l-1.8-2.1l2.5,1.1l0.8-1 c0.2,0.2,0.1,0.8,0.1,0.8c1.9,0.5,3.3,2.2,3.2,4.2c0,0.1,0,0.2,0,0.3h0.1c0.3,0.4,0.7,0.7,1.2,0.8l3.5,0.4l0,0 c0.7-0.2,1.5-0.4,2.2-0.5c0.6,0,1.3,0.2,1.8,0.5c0.2-0.2,0.5-0.3,0.8-0.3h0.1c1.6,0,2.3,1.4,3.1,2.6l1.5,2.3 c-0.2,0.4-0.7,0.6-1.1,0.6h-0.5c-1.7-0.3-2-3.8-2.9-4.1h-0.2c-0.2,0-0.4,0.1-0.5,0.3c0.4,1.2,0.2,1.7,0.7,2.6 c0.4,0.6,0.8,1.1,1.3,1.5L79.5,96.9 M60.4,93.5l0.2,0.4c-0.1,0.4-1.3,0.9-1.3,0.9L59,94.2c-0.4-0.8-0.1-1.8,0.6-2.3l2-1.2l2.1,0.4 c0,0.4,0.1,0.9,0.4,1.2l-2.2-0.4l-1.3,0.9C60.4,93,60.4,93.3,60.4,93.5 M79.9,100.2l0.6-3.2v-0.6l0.6,0.2h0.6c0.7,0,1.4-0.3,1.8-0.9 l0.5-0.5l-0.4-0.6l-1.5-2.3l-0.4-0.6c-0.7-1.1-1.7-2.5-3.5-2.5H78l-0.8,0.2C76.6,89.1,76,89,75.4,89c-0.6,0-1.2,0.2-1.8,0.4h-0.3 l-3.5-0.3l-0.4-0.3l0,0l0.8-0.3c-0.2-2.5-2.6-4-3.9-4.6c-0.1-0.3-0.2-0.5-0.4-0.7l-0.7-0.7l-0.7,0.8l-0.3,0.4l-4.9-2l3.2,4l-1.2,1.9 c-0.3,0.3-0.3,0.7,0,1c0,0,0,0,0,0l1.3,0.9l1.3-0.5H64c-0.1,0.2-0.1,1-0.2,1.2l-2.3-0.5l-2.4,1.4c-1.1,0.8-1.5,2.2-1,3.5l0.3,0.6 l0.4,0.8l0.9-0.4l0,0c-0.3,0.8-0.2,1.8,0.4,2.5l0.5,0.6l0.7,0.9l0.8-0.8c0.5-0.5,0.9-1.1,1.2-1.7l0.2-0.5l-0.4-0.4H63l0.4-0.7l3,0.7 l0.7,0.2l0.4-0.6l0.2-0.3h0.5l3.1,0.3c0.7,0.1,1.4,0,2.1-0.2l1.6,1.8l-1,3.1v0.2c-1.5,0-2.9,0.6-3.9,1.7c-1.6-1.6-2.7-1.8-7.1-1.8 s-8.7-3-8.7-7.9V80.8h31.5v11.9C86,96.3,83.5,99.6,79.9,100.2 M86.7,61.8c-0.5,1.3-0.8,2.6-0.9,4v8.8c-1.1-0.3-2-1.2-2.1-2.4v-0.4 h-0.4c-0.7-0.1-1.3-0.4-1.8-0.9c-0.6-0.7-0.9-1.5-0.9-2.4c-0.6,0.9-0.6,2.1,0.1,3c0.5,0.7,1.3,1.1,2.1,1.2c0.3,1.5,1.5,2.7,3,2.9 v4.3h-5.5c-1.5-0.7-2.1-2.5-1.4-4l0.2-0.5l-0.5-0.2c-1.5-0.6-2.4-2.2-1.9-3.8V71l-0.4-0.2c-2.2-1-1.9-3.8-1.9-4 c-0.8,0.7-1,1.9-0.5,2.8l-1,1c-1.3-0.3-2.3-1.4-2.4-2.8v-0.3h-0.3c-0.7-0.3-1.4-0.8-1.7-1.5c-0.2-0.6-0.3-1.3-0.1-1.9h2.4 c1.8-0.2,3.5-1.1,4.8-2.4L86.7,61.8z M78.2,52.9l2.1,1.1l0,0l0.5,0.3c-1.1,0.3-2.1,0.9-2.9,1.7h-0.1l-0.5,0.6h-0.1l-0.5,0.7h-0.1 l-0.5,0.8c-1.5,2.6-4,4.2-6.2,4.2s-4.6-1.6-6.2-4.2l-0.5-0.8h-0.1l-0.5-0.6h-0.1L62,56.1h-0.1c-0.8-0.8-1.8-1.4-2.9-1.7l0.5-0.3l0,0 l2.2-1.3l2.2-1.3l6.1,3.2l0,0l5.9-3.2L78.2,52.9z M75.3,50.2l-4.7,2.5v-10l6.4-2.2L75.3,50.2z M70,41.4l-7-2.8 c0.6-1.4,3.3-2.6,7-2.6s6.4,1.2,7,2.6L70,41.4z" />
</svg>